<svg width="624.8" height="67.708" viewBox="0 0 624.8 67.708" xmlns="http://www.w3.org/2000/svg"><g id="svgGroup" stroke-linecap="round" fill-rule="evenodd" font-size="9pt" stroke="#000" stroke-width="0.25mm" fill="#000" style="stroke:#000;stroke-width:0.25mm;fill:#000"><path d="M 52.8 10.005 L 52.8 42.105 A 23.951 23.951 0 0 1 45.446 59.674 A 30.346 30.346 0 0 1 44.9 60.205 Q 37 67.705 26.2 67.705 Q 15.5 67.705 7.75 60.255 A 24.171 24.171 0 0 1 0.008 42.771 A 29.133 29.133 0 0 1 0 42.105 L 0 19.205 L 18 1.205 L 18 42.305 A 7.358 7.358 0 0 0 20.312 47.728 A 9.665 9.665 0 0 0 20.55 47.955 Q 23.1 50.305 26.6 50.305 Q 29.9 50.305 32.45 48.005 A 7.635 7.635 0 0 0 34.44 45.251 A 7.619 7.619 0 0 0 35 42.305 L 35 26.605 L 35 12.205 L 35 1.105 L 52.8 1.105 L 52.8 10.005 Z M 78.4 66.705 L 65.9 66.705 L 57.8 66.705 L 57.8 53.605 L 77 53.705 Q 78.3 53.705 79.2 52.655 Q 80.1 51.605 80.1 50.205 A 2.879 2.879 0 0 0 79.82 48.892 Q 79.212 47.689 77.283 47.46 A 8.345 8.345 0 0 0 76.3 47.405 A 19.079 19.079 0 0 1 69.866 46.358 A 16.663 16.663 0 0 1 63.55 42.305 A 16.835 16.835 0 0 1 58.5 30.118 A 20.449 20.449 0 0 1 58.5 30.005 A 14.162 14.162 0 0 1 62.475 20.129 A 19.446 19.446 0 0 1 63.6 19.005 A 17.816 17.816 0 0 1 69.396 15.355 A 16.592 16.592 0 0 1 75.3 14.305 L 107.7 14.305 L 94 28.005 L 74.8 27.905 A 3.718 3.718 0 0 0 72.65 28.555 A 2.112 2.112 0 0 0 71.724 30.106 A 3.167 3.167 0 0 0 71.7 30.505 A 4.995 4.995 0 0 0 71.812 31.604 Q 71.966 32.285 72.33 32.769 A 2.605 2.605 0 0 0 73.2 33.505 Q 75.1 34.305 77.4 34.305 A 20.91 20.91 0 0 1 83.004 35.02 A 15.785 15.785 0 0 1 89.75 38.805 A 14.933 14.933 0 0 1 94.493 49.67 A 19.646 19.646 0 0 1 94.5 50.205 Q 94.5 56.805 89.8 61.755 Q 85.1 66.705 78.4 66.705 Z M 148.7 50.305 L 155.9 50.305 L 155.9 66.705 L 147.7 66.805 A 30.422 30.422 0 0 1 134.534 63.994 A 30.193 30.193 0 0 1 125.55 57.405 Q 116.6 48.005 116.6 34.705 A 30.928 30.928 0 0 1 126.139 12.033 A 39.932 39.932 0 0 1 127.1 11.105 Q 137.6 1.305 152 1.305 L 176.9 1.205 L 160 18.205 L 151.2 18.205 Q 144.4 18.205 139.15 22.955 A 15.988 15.988 0 0 0 135.223 28.22 A 15.3 15.3 0 0 0 133.9 34.605 Q 133.9 40.905 138.15 45.605 A 14.024 14.024 0 0 0 143.496 49.373 A 14.248 14.248 0 0 0 148.7 50.305 Z M 552.7 33.705 Q 552.7 49.605 542.7 58.505 Q 532.7 67.405 518.9 67.405 Q 505.2 67.405 495.2 58.555 A 28.891 28.891 0 0 1 485.948 41.921 A 42.97 42.97 0 0 1 485.2 33.705 A 40.169 40.169 0 0 1 486.492 23.234 A 28.773 28.773 0 0 1 495.2 8.955 Q 505.2 0.005 519 0.005 Q 528.866 0.005 535.486 3.404 A 22.647 22.647 0 0 1 540.25 6.655 Q 545.315 11.176 548.092 15.443 A 23.928 23.928 0 0 1 550.2 19.405 Q 552.7 25.505 552.7 33.705 Z M 350.3 66.805 L 350.3 27.905 L 364.2 14.105 L 364.2 36.405 L 386.6 14.305 L 403 14.305 L 350.3 66.805 Z M 433.4 1.205 L 433.4 66.705 L 415.4 66.705 L 415.4 19.205 L 404.9 19.205 L 422.4 1.205 L 433.4 1.205 Z M 624.8 1.205 L 624.8 66.705 L 606.8 66.705 L 606.8 19.205 L 596.3 19.205 L 613.8 1.205 L 624.8 1.205 Z M 286.9 53.705 L 292.8 53.605 A 11.104 11.104 0 0 0 300.786 50.272 A 14.786 14.786 0 0 0 301.15 49.905 Q 304.7 46.205 304.7 41.105 A 12.59 12.59 0 0 0 300.888 31.943 A 15.905 15.905 0 0 0 300.75 31.805 A 13.085 13.085 0 0 0 291.287 27.906 A 16.029 16.029 0 0 0 291.2 27.905 L 284.2 28.005 L 284.3 14.305 L 290.2 14.405 Q 301.7 14.405 310.1 22.155 Q 318.5 29.905 318.5 41.105 Q 318.5 51.705 311.4 59.205 A 23.363 23.363 0 0 1 294.43 66.694 A 29.943 29.943 0 0 1 293.6 66.705 L 286.9 66.705 L 286.9 53.705 Z M 219.168 48.942 A 31.255 31.255 0 0 0 220.3 40.305 A 34.577 34.577 0 0 0 219.658 33.469 A 23.198 23.198 0 0 0 212.4 20.405 Q 204.5 13.305 193.3 13.305 Q 182.4 13.305 174.35 20.455 A 22.959 22.959 0 0 0 167.34 31.894 A 32.177 32.177 0 0 0 166.3 40.305 A 34.447 34.447 0 0 0 166.929 47.055 A 23.181 23.181 0 0 0 174.25 60.205 Q 182.2 67.305 193.3 67.305 Q 204.2 67.305 212.25 60.055 A 23.297 23.297 0 0 0 219.168 48.942 Z M 236.1 14.305 L 250 14.305 Q 257.588 14.305 262.315 18.134 A 15.538 15.538 0 0 1 262.7 18.455 A 13.227 13.227 0 0 1 266.797 25.121 Q 267.5 27.666 267.5 30.805 A 17.162 17.162 0 0 1 266.397 37.047 A 15.655 15.655 0 0 1 262.8 42.505 A 15.778 15.778 0 0 1 253.845 46.947 A 22.138 22.138 0 0 1 250.4 47.205 L 249.3 47.205 A 5.312 5.312 0 0 1 248.412 47.128 A 6.268 6.268 0 0 1 248.05 47.055 Q 247.4 46.905 247.25 46.805 A 0.609 0.609 0 0 1 247.188 46.759 Q 247.122 46.702 247.106 46.644 A 0.138 0.138 0 0 1 247.1 46.605 L 247.5 46.305 L 248.3 45.905 L 239.7 39.305 L 246.2 39.205 A 10.573 10.573 0 0 0 248.096 39.046 Q 249.945 38.709 251.1 37.655 Q 252.8 36.105 252.8 33.305 A 6.505 6.505 0 0 0 252.591 31.611 A 4.694 4.694 0 0 0 251.25 29.355 A 4.561 4.561 0 0 0 249.742 28.444 Q 248.421 27.939 246.464 27.908 A 16.366 16.366 0 0 0 246.2 27.905 L 236.1 27.905 L 236.1 14.305 Z M 98 66.705 L 98 28.705 L 112.4 14.305 L 112.4 66.705 L 98 66.705 Z M 221.8 66.705 L 221.8 28.705 L 236.1 14.305 L 236.1 66.705 L 221.8 66.705 Z M 269.9 66.705 L 269.9 28.705 L 284.2 14.305 L 284.2 66.705 L 269.9 66.705 Z M 502.2 33.705 A 19.45 19.45 0 0 0 502.861 38.915 A 14.139 14.139 0 0 0 507.1 45.805 Q 512 50.205 518.8 50.205 Q 525.4 50.205 530.3 45.905 A 13.968 13.968 0 0 0 534.768 38.079 A 20.986 20.986 0 0 0 535.2 33.705 A 19.913 19.913 0 0 0 534.581 28.596 A 13.976 13.976 0 0 0 530.3 21.555 Q 525.4 17.205 518.6 17.205 Q 512 17.205 507.1 21.455 A 13.747 13.747 0 0 0 502.691 29.018 A 21.114 21.114 0 0 0 502.2 33.705 Z M 267.1 50.305 L 267.1 67.105 L 239.2 39.305 L 256.3 39.305 L 267.1 50.305 Z M 179.9 40.305 A 15.192 15.192 0 0 0 180.455 44.522 A 11.406 11.406 0 0 0 183.85 49.955 Q 187.8 53.505 193.1 53.505 A 14.542 14.542 0 0 0 198.297 52.602 A 13.198 13.198 0 0 0 202.45 50.055 A 11.233 11.233 0 0 0 205.943 43.88 A 16.923 16.923 0 0 0 206.3 40.305 A 15.192 15.192 0 0 0 205.745 36.089 A 11.406 11.406 0 0 0 202.35 30.655 Q 198.4 27.105 193.1 27.105 Q 187.6 27.105 183.75 30.505 A 10.985 10.985 0 0 0 180.334 36.344 A 16.975 16.975 0 0 0 179.9 40.305 Z M 464.2 66.705 L 464.2 50.205 L 478 50.205 L 478 66.705 L 464.2 66.705 Z M 565 66.705 L 565 50.205 L 578.8 50.205 L 578.8 66.705 L 565 66.705 Z" vector-effect="non-scaling-stroke"/></g></svg>