<svg width="664.08125px" height="138.8px" xmlns="http://www.w3.org/2000/svg" viewBox="-82.04062499999998 5.599999999999994 664.08125 138.8" style="background: rgba(5, 17, 3, 0);" preserveAspectRatio="xMidYMid"><defs><linearGradient id="editing-glowing-gradient" x1="0.8146601955249185" x2="0.18533980447508147" y1="0.8885729807284856" y2="0.11142701927151444"><stop offset="0" stop-color="#67ff43"></stop><stop offset="1" stop-color="#abff90"></stop></linearGradient><filter id="editing-glowing" x="-100%" y="-100%" width="300%" height="300%"><feGaussianBlur in="SourceGraphic" result="blur" stdDeviation="3.5"></feGaussianBlur><feMerge><feMergeNode in="blur"></feMergeNode><feMergeNode in="SourceGraphic"></feMergeNode></feMerge></filter></defs><g filter="url(#editing-glowing)"><g transform="translate(13.779979228973389, 100.79500198364258)"><path d="M25.22 0.90L25.22 0.90Q15.17 0.90 9.70-3.52L9.70-3.52L9.70-3.52Q4.22-7.94 4.22-17.86L4.22-17.86L4.22-39.30L1.02-39.30L1.02-49.79L24.70-49.79L24.70-39.30L22.14-39.30L22.14-14.59L22.14-14.59Q22.14-12.48 23.07-11.49L23.07-11.49L23.07-11.49Q24-10.50 25.86-10.50L25.86-10.50L25.86-10.50Q27.71-10.50 28.64-11.49L28.64-11.49L28.64-11.49Q29.57-12.48 29.57-14.59L29.57-14.59L29.57-39.30L27.01-39.30L27.01-49.79L48.96-49.79L48.96-39.30L45.76-39.30L45.76-17.86L45.76-17.86Q45.76-7.94 40.45-3.52L40.45-3.52L40.45-3.52Q35.14 0.90 25.22 0.90L25.22 0.90ZM66.69 0.90L66.69 0.90Q58.62 0.90 51.14-1.66L51.14-1.66L51.14-11.14L61.50-11.14L61.50-10.50L61.50-10.50Q61.50-7.42 65.41-7.42L65.41-7.42L65.41-7.42Q68.86-7.42 68.86-9.79L68.86-9.79L68.86-9.79Q68.86-11.07 67.87-11.71L67.87-11.71L67.87-11.71Q66.88-12.35 64.38-12.80L64.38-12.80L61.18-13.38L61.18-13.38Q51.14-15.17 51.14-24.77L51.14-24.77L51.14-24.77Q51.14-30.34 55.36-33.41L55.36-33.41L55.36-33.41Q59.58-36.48 66.75-36.48L66.75-36.48L66.75-36.48Q74.75-36.48 80.26-33.79L80.26-33.79L80.26-24.90L70.53-24.90L70.53-25.54L70.53-25.54Q70.53-26.82 69.66-27.49L69.66-27.49L69.66-27.49Q68.80-28.16 67.14-28.16L67.14-28.16L67.14-28.16Q63.94-28.16 63.94-26.11L63.94-26.11L63.94-26.11Q63.94-25.02 64.83-24.45L64.83-24.45L64.83-24.45Q65.73-23.87 68.10-23.36L68.10-23.36L71.74-22.66L71.74-22.66Q77.44-21.57 79.87-18.62L79.87-18.62L79.87-18.62Q82.30-15.68 82.30-11.07L82.30-11.07L82.30-11.07Q82.30-5.25 78.24-2.18L78.24-2.18L78.24-2.18Q74.18 0.90 66.69 0.90L66.69 0.90ZM100.48-39.10L87.42-39.10L87.42-49.79L100.48-49.79L100.48-39.10ZM104.70 0L84.35 0L84.35-10.50L87.17-10.50L87.17-25.09L84.35-25.09L84.35-35.58L101.89-35.58L101.89-10.50L104.70-10.50L104.70 0ZM131.46 0.90L131.46 0.90Q119.36 0.90 112.80-5.25L112.80-5.25L112.80-5.25Q106.24-11.39 106.24-24.90L106.24-24.90L106.24-24.90Q106.24-50.69 131.33-50.69L131.33-50.69L131.33-50.69Q137.41-50.69 142.62-49.22L142.62-49.22L142.62-49.22Q147.84-47.74 150.40-45.95L150.40-45.95L150.40-29.95L135.04-29.95L135.04-34.56L135.04-34.56Q135.04-36.99 133.95-38.14L133.95-38.14L133.95-38.14Q132.86-39.30 130.69-39.30L130.69-39.30L130.69-39.30Q128.51-39.30 127.42-38.14L127.42-38.14L127.42-38.14Q126.34-36.99 126.34-34.56L126.34-34.56L126.34-15.23L126.34-15.23Q126.34-12.80 127.42-11.65L127.42-11.65L127.42-11.65Q128.51-10.50 130.69-10.50L130.69-10.50L130.69-10.50Q132.86-10.50 133.95-11.65L133.95-11.65L133.95-11.65Q135.04-12.80 135.04-15.23L135.04-15.23L135.04-20.42L150.40-20.42L150.40-3.84L150.40-3.84Q147.78-2.05 142.62-0.58L142.62-0.58L142.62-0.58Q137.47 0.90 131.46 0.90L131.46 0.90ZM171.78 0.90L171.78 0.90Q162.69 0.90 157.57-3.87L157.57-3.87L157.57-3.87Q152.45-8.64 152.45-17.79L152.45-17.79L152.45-17.79Q152.45-26.94 157.57-31.71L157.57-31.71L157.57-31.71Q162.69-36.48 171.78-36.48L171.78-36.48L171.78-36.48Q180.99-36.48 186.05-31.65L186.05-31.65L186.05-31.65Q191.10-26.82 191.10-17.79L191.10-17.79L191.10-17.79Q191.10-8.64 185.98-3.87L185.98-3.87L185.98-3.87Q180.86 0.90 171.78 0.90L171.78 0.90ZM171.78-10.50L171.78-10.50Q173.63-10.50 174.56-11.49L174.56-11.49L174.56-11.49Q175.49-12.48 175.49-14.59L175.49-14.59L175.49-20.99L175.49-20.99Q175.49-23.10 174.56-24.10L174.56-24.10L174.56-24.10Q173.63-25.09 171.78-25.09L171.78-25.09L171.78-25.09Q169.92-25.09 168.99-24.10L168.99-24.10L168.99-24.10Q168.06-23.10 168.06-20.99L168.06-20.99L168.06-14.59L168.06-14.59Q168.06-12.48 168.99-11.49L168.99-11.49L168.99-11.49Q169.92-10.50 171.78-10.50L171.78-10.50ZM220.48-36.48L220.48-36.48Q221.76-36.48 222.91-36.22L222.91-36.22L222.91-36.22Q224.06-35.97 224.83-35.58L224.83-35.58L224.83-23.36L224.83-23.36Q222.21-24.45 219.20-24.45L219.20-24.45L219.20-24.45Q215.17-24.45 212.99-22.34L212.99-22.34L212.99-22.34Q210.82-20.22 210.82-16.06L210.82-16.06L210.82-10.50L216.58-10.50L216.58 0L193.28 0L193.28-10.50L196.10-10.50L196.10-25.09L193.28-25.09L193.28-35.58L210.82-35.58L210.82-30.91L210.82-30.91Q212.61-33.60 214.91-35.04L214.91-35.04L214.91-35.04Q217.22-36.48 220.48-36.48L220.48-36.48ZM239.49 0.90L239.49 0.90Q232.96 0.90 229.66-3.97L229.66-3.97L229.66-3.97Q226.37-8.83 226.37-17.79L226.37-17.79L226.37-17.79Q226.37-26.75 229.66-31.62L229.66-31.62L229.66-31.62Q232.96-36.48 239.49-36.48L239.49-36.48L239.49-36.48Q242.75-36.48 245.28-34.88L245.28-34.88L245.28-34.88Q247.81-33.28 249.41-31.23L249.41-31.23L249.41-39.30L245.63-39.30L245.63-49.79L264.13-49.79L264.13-10.50L266.94-10.50L266.94 0L249.41 0L249.41-4.35L249.41-4.35Q247.81-2.30 245.28-0.70L245.28-0.70L245.28-0.70Q242.75 0.90 239.49 0.90L239.49 0.90ZM245.70-10.50L245.70-10.50Q247.55-10.50 248.48-11.49L248.48-11.49L248.48-11.49Q249.41-12.48 249.41-14.59L249.41-14.59L249.41-20.99L249.41-20.99Q249.41-23.10 248.48-24.10L248.48-24.10L248.48-24.10Q247.55-25.09 245.70-25.09L245.70-25.09L245.70-25.09Q243.84-25.09 242.91-24.10L242.91-24.10L242.91-24.10Q241.98-23.10 241.98-20.99L241.98-20.99L241.98-14.59L241.98-14.59Q241.98-12.48 242.91-11.49L242.91-11.49L242.91-11.49Q243.84-10.50 245.70-10.50L245.70-10.50ZM317.50 0L298.43 0L290.37-25.09L287.68-25.09L287.68-35.58L307.46-35.58L307.46-25.09L304.77-25.09L308.16-12.42L308.80-12.42L312.19-25.09L309.50-25.09L309.50-35.58L328.06-35.58L328.06-25.09L325.38-25.09L317.50 0ZM359.94 0L331.52 0L331.52-10.50L337.66-10.50L337.66-39.30L329.60-39.30L329.60-46.53L343.81-49.79L354.56-49.79L354.56-10.50L359.94-10.50L359.94 0ZM374.66 0L364.67 0L364.67-10.50L374.66-10.50L374.66 0ZM401.15 0.90L401.15 0.90Q390.34 0.90 384.48-5.25L384.48-5.25L384.48-5.25Q378.62-11.39 378.62-24.90L378.62-24.90L378.62-24.90Q378.62-38.40 384.48-44.54L384.48-44.54L384.48-44.54Q390.34-50.69 401.15-50.69L401.15-50.69L401.15-50.69Q411.97-50.69 417.82-44.54L417.82-44.54L417.82-44.54Q423.68-38.40 423.68-24.90L423.68-24.90L423.68-24.90Q423.68-12.42 418.27-5.76L418.27-5.76L418.27-5.76Q412.86 0.90 401.15 0.90L401.15 0.90ZM401.15-10.50L401.15-10.50Q405.50-10.50 405.50-15.23L405.50-15.23L405.50-34.56L405.50-34.56Q405.50-39.30 401.15-39.30L401.15-39.30L401.15-39.30Q396.80-39.30 396.80-34.56L396.80-34.56L396.80-15.23L396.80-15.23Q396.80-10.50 401.15-10.50L401.15-10.50ZM437.12 0L427.14 0L427.14-10.50L437.12-10.50L437.12 0ZM471.42 0L443.01 0L443.01-10.50L449.15-10.50L449.15-39.30L441.09-39.30L441.09-46.53L455.30-49.79L466.05-49.79L466.05-10.50L471.42-10.50L471.42 0Z" fill="url(#editing-glowing-gradient)"></path></g></g><style>text {
  font-size: 64px;
  font-family: Arial Black;
  dominant-baseline: central;
  text-anchor: middle;
}</style></svg>
