<svg width="399.3125px" height="137.6px" xmlns="http://www.w3.org/2000/svg" viewBox="50.34375 6.200000000000003 399.3125 137.6" style="background: rgba(5, 17, 3, 0);" preserveAspectRatio="xMidYMid"><defs><linearGradient id="editing-glowing-gradient" x1="0.8146601955249185" x2="0.18533980447508147" y1="0.8885729807284856" y2="0.11142701927151444"><stop offset="0" stop-color="#67ff43"></stop><stop offset="1" stop-color="#abff90"></stop></linearGradient><filter id="editing-glowing" x="-100%" y="-100%" width="300%" height="300%"><feGaussianBlur in="SourceGraphic" result="blur" stdDeviation="2"></feGaussianBlur><feMerge><feMergeNode in="blur"></feMergeNode><feMergeNode in="SourceGraphic"></feMergeNode></feMerge></filter></defs><g filter="url(#editing-glowing)"><g transform="translate(110.92497825622559, 98.58500099182129)"><path d="M48.58-17.73L48.58-17.73Q48.58-8.70 42.88-3.97L42.88-3.97L42.88-3.97Q37.18 0.77 26.69 0.77L26.69 0.77L26.69 0.77Q16.19 0.77 10.46-3.97L10.46-3.97L10.46-3.97Q4.74-8.70 4.74-17.73L4.74-17.73L4.74-44.03L18.88-44.03L18.88-17.92L18.88-17.92Q18.88-14.21 20.86-12L20.86-12L20.86-12Q22.85-9.79 26.62-9.79L26.62-9.79L26.62-9.79Q30.40-9.79 32.42-12.03L32.42-12.03L32.42-12.03Q34.43-14.27 34.43-17.92L34.43-17.92L34.43-44.03L48.58-44.03L48.58-17.73ZM73.22-34.56L73.22-34.56Q80-34.56 84.70-31.90L84.70-31.90L84.70-31.90Q89.41-29.25 89.41-23.68L89.41-23.68L77.57-23.68L77.57-23.68Q77.57-25.54 75.90-26.30L75.90-26.30L75.90-26.30Q74.75-26.94 73.02-26.94L73.02-26.94L73.02-26.94Q68.42-26.94 68.42-24.77L68.42-24.77L68.42-24.77Q68.42-23.55 70.02-23.04L70.02-23.04L70.02-23.04Q71.62-22.53 75.26-21.95L75.26-21.95L75.26-21.95Q79.74-21.31 82.75-20.45L82.75-20.45L82.75-20.45Q85.76-19.58 88-17.38L88-17.38L88-17.38Q90.24-15.17 90.24-11.20L90.24-11.20L90.24-11.20Q90.24-4.74 85.41-1.98L85.41-1.98L85.41-1.98Q80.58 0.77 72.77 0.77L72.77 0.77L72.77 0.77Q68.29 0.77 64.32-0.48L64.32-0.48L64.32-0.48Q60.35-1.73 57.86-4.35L57.86-4.35L57.86-4.35Q55.36-6.98 55.36-11.01L55.36-11.01L67.20-11.01L67.20-10.75L67.20-10.75Q67.26-8.58 69.02-7.71L69.02-7.71L69.02-7.71Q70.78-6.85 72.77-6.85L72.77-6.85L72.77-6.85Q78.08-6.85 78.08-9.34L78.08-9.34L78.08-9.34Q78.08-10.62 76.42-11.20L76.42-11.20L76.42-11.20Q74.75-11.78 70.98-12.42L70.98-12.42L70.98-12.42Q66.43-13.18 63.52-14.08L63.52-14.08L63.52-14.08Q60.61-14.98 58.43-17.12L58.43-17.12L58.43-17.12Q56.26-19.26 56.26-23.10L56.26-23.10L56.26-23.10Q56.26-29.31 60.96-31.94L60.96-31.94L60.96-31.94Q65.66-34.56 73.22-34.56L73.22-34.56ZM109.44-37.76L96.70-37.76L96.70-46.40L109.44-46.40L109.44-37.76ZM109.44 0L96.70 0L96.70-33.79L109.44-33.79L109.44 0ZM139.46-44.80L139.46-44.80Q149.25-44.80 154.94-39.90L154.94-39.90L154.94-39.90Q160.64-35.01 160.64-25.92L160.64-25.92L147.14-25.92L147.14-25.92Q147.14-29.76 145.12-32L145.12-32L145.12-32Q143.10-34.24 139.39-34.24L139.39-34.24L139.39-34.24Q135.10-34.24 133.09-31.55L133.09-31.55L133.09-31.55Q131.07-28.86 131.07-24.06L131.07-24.06L131.07-19.97L131.07-19.97Q131.07-15.23 133.09-12.51L133.09-12.51L133.09-12.51Q135.10-9.79 139.26-9.79L139.26-9.79L139.26-9.79Q143.36-9.79 145.47-11.90L145.47-11.90L145.47-11.90Q147.58-14.02 147.58-17.86L147.58-17.86L160.64-17.86L160.64-17.86Q160.64-8.83 155.10-4.03L155.10-4.03L155.10-4.03Q149.57 0.77 139.46 0.77L139.46 0.77L139.46 0.77Q128.19 0.77 122.40-4.99L122.40-4.99L122.40-4.99Q116.61-10.75 116.61-22.02L116.61-22.02L116.61-22.02Q116.61-33.28 122.40-39.04L122.40-39.04L122.40-39.04Q128.19-44.80 139.46-44.80L139.46-44.80ZM184.83-34.56L184.83-34.56Q193.73-34.56 198.82-30.05L198.82-30.05L198.82-30.05Q203.90-25.54 203.90-16.90L203.90-16.90L203.90-16.90Q203.90-8.26 198.82-3.74L198.82-3.74L198.82-3.74Q193.73 0.77 184.83 0.77L184.83 0.77L184.83 0.77Q175.94 0.77 170.88-3.71L170.88-3.71L170.88-3.71Q165.82-8.19 165.82-16.90L165.82-16.90L165.82-16.90Q165.82-25.60 170.88-30.08L170.88-30.08L170.88-30.08Q175.94-34.56 184.83-34.56L184.83-34.56ZM184.83-25.92L184.83-25.92Q178.56-25.92 178.56-18.69L178.56-18.69L178.56-15.04L178.56-15.04Q178.56-7.87 184.83-7.87L184.83-7.87L184.83-7.87Q191.17-7.87 191.17-15.04L191.17-15.04L191.17-18.69L191.17-18.69Q191.17-25.92 184.83-25.92L184.83-25.92ZM230.59-34.62L230.59-34.62Q232.06-34.62 233.22-34.27L233.22-34.27L233.22-34.27Q234.37-33.92 234.37-33.86L234.37-33.86L234.37-23.17L230.27-23.17L230.27-23.17Q226.30-23.17 224.54-21.12L224.54-21.12L224.54-21.12Q222.78-19.07 222.78-15.04L222.78-15.04L222.78 0L210.05 0L210.05-33.79L220.48-33.79L221.31-28.67L221.31-28.67Q222.46-31.62 224.96-33.12L224.96-33.12L224.96-33.12Q227.46-34.62 230.59-34.62L230.59-34.62ZM273.41 0L263.04 0L261.95-4.80L261.95-4.80Q258.24 0.77 251.20 0.77L251.20 0.77L251.20 0.77Q244.35 0.77 240.64-3.71L240.64-3.71L240.64-3.71Q236.93-8.19 236.93-16.96L236.93-16.96L236.93-16.96Q236.93-25.66 240.64-30.11L240.64-30.11L240.64-30.11Q244.35-34.56 251.20-34.56L251.20-34.56L251.20-34.56Q257.02-34.56 260.67-30.66L260.67-30.66L260.67-46.40L273.41-46.40L273.41 0ZM255.17-25.15L255.17-25.15Q249.66-25.15 249.66-18.56L249.66-18.56L249.66-15.17L249.66-15.17Q249.66-8.64 255.17-8.64L255.17-8.64L255.17-8.64Q257.98-8.64 259.39-10.62L259.39-10.62L259.39-10.62Q260.80-12.61 260.80-15.81L260.80-15.81L260.80-17.92L260.80-17.92Q260.80-21.12 259.39-23.14L259.39-23.14L259.39-23.14Q257.98-25.15 255.17-25.15L255.17-25.15Z" fill="url(#editing-glowing-gradient)"></path></g></g><style>text {
  font-size: 64px;
  font-family: Arial Black;
  dominant-baseline: central;
  text-anchor: middle;
}</style></svg>