<svg width="922.925px" height="176px" xmlns="http://www.w3.org/2000/svg" viewBox="-211.46249999999998 -13 922.925 176" style="background: rgba(0, 0, 0, 0);" preserveAspectRatio="xMidYMid"><defs><linearGradient id="editing-glowing-gradient" x1="0.5348782368720627" x2="0.46512176312793735" y1="0.0012179748700879012" y2="0.9987820251299121"><stop offset="0" stop-color="#4dc140"></stop><stop offset="1" stop-color="#ffffff"></stop></linearGradient><filter id="editing-glowing" x="-100%" y="-100%" width="300%" height="300%"><feGaussianBlur in="SourceGraphic" result="blur" stdDeviation="30"></feGaussianBlur><feMerge><feMergeNode in="blur"></feMergeNode><feMergeNode in="SourceGraphic"></feMergeNode></feMerge></filter></defs><g filter="url(#editing-glowing)"><g transform="translate(-81.97498440742493, 111.80000114440918)"><path d="M3.53-14.50L3.53-14.50L3.53-14.50Q3.53-18.33 4.51-23.23L4.51-23.23L12.45-64.68L34.10-64.68L26.26-22.93L26.26-22.93Q25.38-18.33 25.38-14.95L25.38-14.95L25.38-14.95Q25.38-11.56 26.80-9.80L26.80-9.80L26.80-9.80Q28.22-8.04 30.87-8.04L30.87-8.04L30.87-8.04Q33.52-8.04 35.18-8.72L35.18-8.72L35.18-8.72Q36.85-9.41 38.22-11.07L38.22-11.07L38.22-11.07Q40.87-14.41 42.53-22.93L42.53-22.93L50.47-64.68L65.27-64.68L57.43-23.03L57.43-23.03Q54.68-9.11 47.14-3.53L47.14-3.53L47.14-3.53Q39.79 1.96 25.28 1.96L25.28 1.96L25.28 1.96Q14.41 1.96 8.62-2.74L8.62-2.74L8.62-2.74Q3.53-6.86 3.53-14.50ZM96.53-34.40L96.53-34.40L96.53-34.40Q97.90-38.02 97.90-41.16L97.90-41.16L97.90-41.16Q97.90-46.94 93.20-46.94L93.20-46.94L93.20-46.94Q90.75-46.94 88.74-44.74L88.74-44.74L88.74-44.74Q86.73-42.53 86.73-39.79L86.73-39.79L86.73-39.79Q86.73-37.83 88.30-36.26L88.30-36.26L88.30-36.26Q90.55-34.10 96.33-30.58L96.33-30.58L96.33-30.58Q102.12-27.05 104.32-24.16L104.32-24.16L104.32-24.16Q106.53-21.27 106.53-17.30L106.53-17.30L106.53-17.30Q106.53-13.33 104.62-9.70L104.62-9.70L104.62-9.70Q102.70-6.08 99.27-3.53L99.27-3.53L99.27-3.53Q91.92 1.96 80.16 1.96L80.16 1.96L80.16 1.96Q73.79 1.96 68.89-1.37L68.89-1.37L68.89-1.37Q63.99-4.61 63.99-8.43L63.99-8.43L63.99-8.43Q63.99-12.25 66.79-14.50L66.79-14.50L66.79-14.50Q69.58-16.76 73.70-16.76L73.70-16.76L73.70-16.76Q77.81-16.76 80.36-15.19L80.36-15.19L80.36-15.19Q79.09-11.96 79.09-9.80L79.09-9.80L79.09-9.80Q79.09-3.33 84.57-3.33L84.57-3.33L84.57-3.33Q86.93-3.33 88.49-4.80L88.49-4.80L88.49-4.80Q90.06-6.27 90.06-8.82L90.06-8.82L90.06-8.82Q90.06-13.82 81.63-19.11L81.63-19.11L81.63-19.11Q74.77-23.62 73.21-25.38L73.21-25.38L73.21-25.38Q70.56-28.52 70.56-32.44L70.56-32.44L70.56-32.44Q70.56-36.36 72.42-40.08L72.42-40.08L72.42-40.08Q74.28-43.81 77.71-46.45L77.71-46.45L77.71-46.45Q84.87-51.94 97.31-51.94L97.31-51.94L97.31-51.94Q103.68-51.94 107.46-49.39L107.46-49.39L107.46-49.39Q111.23-46.84 111.23-42.53L111.23-42.53L111.23-42.53Q111.23-38.22 108.63-35.77L108.63-35.77L108.63-35.77Q106.04-33.32 101.33-33.32L101.33-33.32L101.33-33.32Q98.10-33.32 96.53-34.40ZM138.38-5.39L138.38-5.39L138.38-5.39Q135.34 1.96 125.64 1.96L125.64 1.96L125.64 1.96Q120.64 1.96 117.50-1.47L117.50-1.47L117.50-1.47Q114.86-4.51 114.86-7.55L114.86-7.55L114.86-7.55Q114.86-15.48 118.48-30.97L118.48-30.97L122.11-49.98L142.00-51.94L136.02-20.97L136.02-20.97Q134.36-13.72 134.36-11.17L134.36-11.17L134.36-11.17Q134.36-5.59 138.38-5.39ZM123.87-63.60L123.87-63.60L123.87-63.60Q123.87-67.42 127.06-69.48L127.06-69.48L127.06-69.48Q130.24-71.54 134.85-71.54L134.85-71.54L134.85-71.54Q139.45-71.54 142.25-69.48L142.25-69.48L142.25-69.48Q145.04-67.42 145.04-63.60L145.04-63.60L145.04-63.60Q145.04-59.78 141.95-57.82L141.95-57.82L141.95-57.82Q138.87-55.86 134.26-55.86L134.26-55.86L134.26-55.86Q129.65-55.86 126.76-57.82L126.76-57.82L126.76-57.82Q123.87-59.78 123.87-63.60ZM197.86-20.29L197.86-20.29L197.86-20.29Q200.41-18.42 200.41-14.46L200.41-14.46L200.41-14.46Q200.41-10.49 198.69-7.69L198.69-7.69L198.69-7.69Q196.98-4.90 193.65-2.74L193.65-2.74L193.65-2.74Q186.49 1.86 174.00 1.86L174.00 1.86L174.00 1.86Q161.50 1.86 154.69-4.66L154.69-4.66L154.69-4.66Q147.88-11.17 147.88-22.74L147.88-22.74L147.88-22.74Q147.88-39.10 156.41-51.55L156.41-51.55L156.41-51.55Q162.88-60.76 174.44-64.68L174.44-64.68L174.44-64.68Q180.42-66.64 186.30-66.64L186.30-66.64L186.30-66.64Q192.18-66.64 195.80-65.86L195.80-65.86L195.80-65.86Q199.43-65.07 202.17-63.50L202.17-63.50L202.17-63.50Q208.15-60.07 208.15-54.59L208.15-54.59L208.15-54.59Q208.15-49.59 203.45-45.86L203.45-45.86L203.45-45.86Q199.14-42.53 195.61-42.53L195.61-42.53L195.61-42.53Q192.08-42.53 190.61-43.02L190.61-43.02L190.61-43.02Q191.00-46.55 191.00-48.85L191.00-48.85L191.00-48.85Q191.00-51.16 190.90-52.82L190.90-52.82L190.90-52.82Q190.81-54.49 190.32-56.06L190.32-56.06L190.32-56.06Q189.34-59.68 186.35-59.68L186.35-59.68L186.35-59.68Q183.36-59.68 180.37-56.89L180.37-56.89L180.37-56.89Q177.38-54.10 174.83-49.39L174.83-49.39L174.83-49.39Q169.05-38.71 169.05-26.07L169.05-26.07L169.05-26.07Q169.05-19.99 172.48-16.51L172.48-16.51L172.48-16.51Q175.91-13.03 183.26-13.03L183.26-13.03L183.26-13.03Q188.75-13.03 193.94-16.66L193.94-16.66L193.94-16.66Q196.20-18.23 197.86-20.29ZM229.91 1.96L229.91 1.96L229.91 1.96Q208.35 1.96 208.35-18.33L208.35-18.33L208.35-18.33Q208.35-32.73 216.29-42.04L216.29-42.04L216.29-42.04Q224.71-51.94 239.32-51.94L239.32-51.94L239.32-51.94Q249.90-51.94 255.29-47.04L255.29-47.04L255.29-47.04Q260.68-42.14 260.68-31.85L260.68-31.85L260.68-31.85Q260.68-16.17 252.25-7.06L252.25-7.06L252.25-7.06Q244.02 1.96 229.91 1.96ZM232.46-40.67L232.46-40.67L232.46-40.67Q231.28-38.02 230.35-34.05L230.35-34.05L230.35-34.05Q229.42-30.09 228.24-23.81L228.24-23.81L228.24-23.81Q227.07-17.54 227.07-9.80L227.07-9.80L227.07-9.80Q227.07-7.25 227.90-5.59L227.90-5.59L227.90-5.59Q228.73-3.92 230.99-3.92L230.99-3.92L230.99-3.92Q233.24-3.92 234.66-5.00L234.66-5.00L234.66-5.00Q236.08-6.08 237.16-8.62L237.16-8.62L237.16-8.62Q239.12-13.13 240.69-21.51L240.69-21.51L240.69-21.51Q242.26-29.89 242.40-33.52L242.40-33.52L242.40-33.52Q242.55-37.14 242.55-39.84L242.55-39.84L242.55-39.84Q242.55-42.53 241.77-44.30L241.77-44.30L241.77-44.30Q240.98-46.06 238.78-46.06L238.78-46.06L238.78-46.06Q236.57-46.06 235.10-44.69L235.10-44.69L235.10-44.69Q233.63-43.32 232.46-40.67ZM297.14-27.54L297.14-27.54L297.14-27.54Q300.66-33.81 300.66-40.18L300.66-40.18L300.66-40.18Q300.66-44.39 297.63-44.39L297.63-44.39L297.63-44.39Q295.27-44.39 292.82-40.38L292.82-40.38L292.82-40.38Q290.28-36.36 289.49-31.16L289.49-31.16L284.40 0L264.11 1.96L274.11-49.98L290.28-51.94L288.51-42.04L288.51-42.04Q293.31-51.94 304.09-51.94L304.09-51.94L304.09-51.94Q309.78-51.94 312.87-49L312.87-49L312.87-49Q315.95-46.06 315.95-40.03L315.95-40.03L315.95-40.03Q315.95-34.01 311.98-30.18L311.98-30.18L311.98-30.18Q308.01-26.36 301.25-26.36L301.25-26.36L301.25-26.36Q298.31-26.36 297.14-27.54ZM348.39-51.94L348.39-51.94L348.39-51.94Q351.92-51.94 354.66-51.16L354.66-51.16L354.66-51.16Q354.76-51.55 354.96-52.63L354.96-52.63L355.45-55.66L355.45-55.66Q355.84-57.62 356.43-60.86L356.43-60.86L357.99-68.60L377.50-70.56L366.62-13.72L366.62-13.72Q366.52-13.13 366.52-12.15L366.52-12.15L366.52-10.58L366.52-10.58Q366.52-8.43 367.60-6.81L367.60-6.81L367.60-6.81Q368.68-5.19 370.44-5.19L370.44-5.19L370.44-5.19Q368.48-0.59 362.50 1.37L362.50 1.37L362.50 1.37Q360.44 1.96 357.55 1.96L357.55 1.96L357.55 1.96Q354.66 1.96 352.02 0.44L352.02 0.44L352.02 0.44Q349.37-1.08 348.59-3.63L348.59-3.63L348.59-3.63Q347.02-1.08 343.88 0.44L343.88 0.44L343.88 0.44Q340.75 1.96 336.19 1.96L336.19 1.96L336.19 1.96Q331.63 1.96 327.86 0.78L327.86 0.78L327.86 0.78Q324.09-0.39 321.73-2.94L321.73-2.94L321.73-2.94Q317.42-7.94 317.42-19.31L317.42-19.31L317.42-19.31Q317.42-34.01 326.05-42.92L326.05-42.92L326.05-42.92Q334.67-51.94 348.39-51.94ZM347.70-46.06L347.70-46.06L347.70-46.06Q344.08-46.06 342.12-42.14L342.12-42.14L342.12-42.14Q340.16-38.22 338.15-28.52L338.15-28.52L338.15-28.52Q336.14-18.82 336.14-10.09L336.14-10.09L336.14-10.09Q336.14-4.12 339.67-4.12L339.67-4.12L339.67-4.12Q342.80-4.12 345.01-7.25L345.01-7.25L345.01-7.25Q347.21-10.39 348.10-15.58L348.10-15.58L353.39-44.30L353.39-44.30Q351.33-46.06 347.70-46.06ZM434.53-48.31L434.53-48.31L434.53-48.31Q437.77-51.94 443.35-51.94L443.35-51.94L443.35-51.94Q446.78-51.94 449.43-50.08L449.43-50.08L449.43-50.08Q452.07-48.22 452.07-44.74L452.07-44.74L452.07-44.74Q452.07-41.26 451.00-37.53L451.00-37.53L451.00-37.53Q449.92-33.81 448.25-29.99L448.25-29.99L448.25-29.99Q444.92-22.54 440.31-16.37L440.31-16.37L440.31-16.37Q433.85-7.45 427.62-2.74L427.62-2.74L427.62-2.74Q421.40 1.96 414.64 1.96L414.64 1.96L414.64 1.96Q409.15 1.96 405.82 0.69L405.82 0.69L405.82 0.69Q405.23-19.89 404.49-27.24L404.49-27.24L404.49-27.24Q403.76-34.59 403.17-38.61L403.17-38.61L403.17-38.61Q402.19-46.45 399.25-48.31L399.25-48.31L399.25-48.31Q401.51-50.27 403.71-51.11L403.71-51.11L403.71-51.11Q405.92-51.94 410.47-51.94L410.47-51.94L410.47-51.94Q415.03-51.94 418.26-48.36L418.26-48.36L418.26-48.36Q421.50-44.79 422.13-38.47L422.13-38.47L422.13-38.47Q422.77-32.14 422.77-24.50L422.77-24.50L422.77-24.50Q422.77-16.86 422.18-7.64L422.18-7.64L422.18-7.64Q425.22-9.80 428.46-16.37L428.46-16.37L428.46-16.37Q432.87-25.48 434.43-36.46L434.43-36.46L434.43-36.46Q434.92-39.79 434.92-43.32L434.92-43.32L434.92-43.32Q434.92-46.84 434.53-48.31ZM472.85 1.27L466.58 1.08L466.58 1.08Q463.54 0.98 460.35 0.98L460.35 0.98L460.35 0.98Q457.17 0.98 454.03 1.37L454.03 1.37L454.03 1.37Q453.64-0.20 453.64-2.06L453.64-2.06L453.64-2.06Q453.64-5.98 455.85-8.33L455.85-8.33L455.85-8.33Q458.05-10.68 461.48-10.68L461.48-10.68L466.77-10.68L475.01-47.73L475.01-47.73Q471.97-44.69 465.70-44.69L465.70-44.69L465.70-44.69Q462.56-44.69 460.11-47.63L460.11-47.63L460.11-47.63Q457.66-50.37 457.27-54.29L457.27-54.29L457.27-54.29Q471.77-56.84 493.43-66.54L493.43-66.54L496.57-62.82L487.06-10.68L489.51-10.68L489.51-10.68Q495.39-10.68 498.43-11.76L498.43-11.76L498.43-11.76Q499.70-9.60 499.70-6.08L499.70-6.08L499.70-6.08Q499.70-2.55 497.10-0.44L497.10-0.44L497.10-0.44Q494.51 1.67 490.20 1.67L490.20 1.67L490.20 1.67Q481.47 1.67 472.85 1.27L472.85 1.27ZM502.94-5.78L502.94-5.78L502.94-5.78Q502.94-9.51 505.83-11.56L505.83-11.56L505.83-11.56Q508.72-13.62 512.83-13.62L512.83-13.62L512.83-13.62Q516.95-13.62 519.45-11.56L519.45-11.56L519.45-11.56Q521.95-9.51 521.95-5.78L521.95-5.78L521.95-5.78Q521.95-2.06 519.15-0.05L519.15-0.05L519.15-0.05Q516.36 1.96 512.25 1.96L512.25 1.96L512.25 1.96Q508.13 1.96 505.53-0.05L505.53-0.05L505.53-0.05Q502.94-2.06 502.94-5.78ZM532.63-23.32L532.63-23.32L532.63-23.32Q532.63-43.12 541.94-54.88L541.94-54.88L541.94-54.88Q551.25-66.64 567.22-66.64L567.22-66.64L567.22-66.64Q575.75-66.64 580.65-60.27L580.65-60.27L580.65-60.27Q585.55-53.90 585.55-43.27L585.55-43.27L585.55-43.27Q585.55-32.63 583.15-24.35L583.15-24.35L583.15-24.35Q580.75-16.07 576.44-10.19L576.44-10.19L576.44-10.19Q567.42 2.06 552.43 2.06L552.43 2.06L552.43 2.06Q542.33 2.06 537.48-4.17L537.48-4.17L537.48-4.17Q532.63-10.39 532.63-23.32ZM549.98-16.66L549.98-16.66L549.98-16.66Q549.98-6.76 553.21-6.76L553.21-6.76L553.21-6.76Q556.15-6.76 558.84-10.19L558.84-10.19L558.84-10.19Q561.54-13.62 563.70-19.40L563.70-19.40L563.70-19.40Q568.30-32.05 568.30-47.73L568.30-47.73L568.30-47.73Q568.30-53.02 567.47-55.42L567.47-55.42L567.47-55.42Q566.64-57.82 564.43-57.82L564.43-57.82L564.43-57.82Q562.23-57.82 559.63-54.00L559.63-54.00L559.63-54.00Q557.03-50.18 554.88-44.20L554.88-44.20L554.88-44.20Q549.98-30.58 549.98-16.66ZM587.31-5.78L587.31-5.78L587.31-5.78Q587.31-9.51 590.20-11.56L590.20-11.56L590.20-11.56Q593.10-13.62 597.21-13.62L597.21-13.62L597.21-13.62Q601.33-13.62 603.83-11.56L603.83-11.56L603.83-11.56Q606.33-9.51 606.33-5.78L606.33-5.78L606.33-5.78Q606.33-2.06 603.53-0.05L603.53-0.05L603.53-0.05Q600.74 1.96 596.62 1.96L596.62 1.96L596.62 1.96Q592.51 1.96 589.91-0.05L589.91-0.05L589.91-0.05Q587.31-2.06 587.31-5.78ZM633.57 1.27L627.30 1.08L627.30 1.08Q624.26 0.98 621.08 0.98L621.08 0.98L621.08 0.98Q617.89 0.98 614.75 1.37L614.75 1.37L614.75 1.37Q614.36-0.20 614.36-2.06L614.36-2.06L614.36-2.06Q614.36-5.98 616.57-8.33L616.57-8.33L616.57-8.33Q618.77-10.68 622.20-10.68L622.20-10.68L627.49-10.68L635.73-47.73L635.73-47.73Q632.69-44.69 626.42-44.69L626.42-44.69L626.42-44.69Q623.28-44.69 620.83-47.63L620.83-47.63L620.83-47.63Q618.38-50.37 617.99-54.29L617.99-54.29L617.99-54.29Q632.49-56.84 654.15-66.54L654.15-66.54L657.29-62.82L647.78-10.68L650.23-10.68L650.23-10.68Q656.11-10.68 659.15-11.76L659.15-11.76L659.15-11.76Q660.42-9.60 660.42-6.08L660.42-6.08L660.42-6.08Q660.42-2.55 657.83-0.44L657.83-0.44L657.83-0.44Q655.23 1.67 650.92 1.67L650.92 1.67L650.92 1.67Q642.19 1.67 633.57 1.27L633.57 1.27Z" fill="url(#editing-glowing-gradient)"></path></g></g><style>text {
  font-size: 64px;
  font-family: Arial Black;
  dominant-baseline: central;
  text-anchor: middle;
}</style></svg>